# xmcd
#
# Track frame offsets: 
#        150
#        18602
#        40504
#        63741
#        88193
#        107530
#        141207
#        162648
#        177343
#
# Disc length: 2760 seconds
#
# Revision: 0
# Processed by: cddbd v1.5.1PL0 Copyright (c) Steve Scherf et al.
# Submitted via: ExactAudioCopy v0.90b4
#
DISCID=7a0ac609
DTITLE=The Fat Tones - Three
DYEAR=2004
DGENRE=Blues
TTITLE0=Full Time Job
TTITLE1=Don't Think Twice
TTITLE2=Heart Attack
TTITLE3=One Time
TTITLE4=Landlord
TTITLE5=Just Bad Luck
TTITLE6=Crazy About That Woman
TTITLE7=Raided The Joint
TTITLE8=Illustrated Man
EXTD=
EXTT0=
EXTT1=
EXTT2=
EXTT3=
EXTT4=
EXTT5=
EXTT6=
EXTT7=
EXTT8=
PLAYORDER=
